<?xml version="1.0" encoding="UTF-8" standalone="no"?>
<svg
   xmlns:dc="http://purl.org/dc/elements/1.1/"
   xmlns:cc="http://creativecommons.org/ns#"
   xmlns:rdf="http://www.w3.org/1999/02/22-rdf-syntax-ns#"
   xmlns:svg="http://www.w3.org/2000/svg"
   xmlns="http://www.w3.org/2000/svg"
   xmlns:sodipodi="http://sodipodi.sourceforge.net/DTD/sodipodi-0.dtd"
   xmlns:inkscape="http://www.inkscape.org/namespaces/inkscape"
   id="blue_copy"
   style="enable-background:new 0 0 100 100;"
   version="1.1"
   viewBox="0 0 100 100"
   xml:space="preserve"
   sodipodi:docname="app_icon.svg"
   inkscape:export-filename="/mnt/data/home/raphael/eclipse-workspace/MusicNotesDatabase/src/com.ski7777.MusicNotesDatabase/assets/app_icon.png"
   inkscape:export-xdpi="491.51999"
   inkscape:export-ydpi="491.51999"
   inkscape:version="0.92.1 r15371"><metadata
     id="metadata18"><rdf:RDF><cc:Work
         rdf:about=""><dc:format>image/svg+xml</dc:format><dc:type
           rdf:resource="http://purl.org/dc/dcmitype/StillImage" /></cc:Work></rdf:RDF></metadata><defs
     id="defs16" /><sodipodi:namedview
     pagecolor="#ffffff"
     bordercolor="#666666"
     borderopacity="1"
     objecttolerance="10"
     gridtolerance="10"
     guidetolerance="10"
     inkscape:pageopacity="0"
     inkscape:pageshadow="2"
     inkscape:window-width="1920"
     inkscape:window-height="1021"
     id="namedview14"
     showgrid="false"
     inkscape:zoom="6.675088"
     inkscape:cx="62.976833"
     inkscape:cy="45.521491"
     inkscape:window-x="1280"
     inkscape:window-y="30"
     inkscape:window-maximized="1"
     inkscape:current-layer="blue_copy" /><g
     id="Layer_2_copy_2"
     transform="matrix(1.2636419,0,0,1.2636419,-12.550301,-13.18113)"><path
       d="M 71.393,26.598 C 70.582,20.171 65.545,13.968 59,13.032 c -3.385,-0.484 -6.222,0.576 -7.762,1.311 v 53.41 c -2.469,-1.286 -5.5,-2.054 -8.789,-2.054 -8.261,0 -14.959,4.788 -14.959,10.695 0,5.906 6.697,10.695 14.959,10.695 8.262,0 14.959,-4.788 14.959,-10.695 0,-0.242 0,-31.343 0,-46.645 0.859,-0.883 1.611,-1.133 2.167,-1.182 2.753,-0.242 5.987,3.976 7.879,10.637 0.856,-1.029 4.777,-5.964 3.939,-12.606 z"
       id="path2"
       inkscape:connector-curvature="0" /><g
       id="g8"><path
         d="m 57.574,27.568 c -0.536,0.085 -0.886,0.237 -0.97,0.278 -0.365,0.179 -0.768,0.462 -1.197,0.904 0,15.302 0,46.403 0,46.645 0,5.906 -6.697,10.695 -14.959,10.695 -2.774,0 -5.362,-0.549 -7.589,-1.49 2.597,1.553 5.939,2.49 9.589,2.49 8.261,0 14.959,-4.788 14.959,-10.695 0,-0.242 0,-31.343 0,-46.645 0.285,-0.283 1.014,-0.93 2.167,-1.182 1.012,-0.221 1.841,-0.025 2.227,0.092 -0.587,-0.385 -1.114,-0.609 -1.484,-0.742 -0.546,-0.195 -1.541,-0.539 -2.743,-0.35 z"
         id="path4"
         inkscape:connector-curvature="0" /><path
         d="m 71.393,26.598 c -0.688,-5.456 -4.427,-10.736 -9.542,-12.784 4.072,2.482 6.947,7.068 7.542,11.784 0.619,4.91 -1.36,8.882 -2.782,11.038 0.302,0.809 0.585,1.664 0.842,2.568 0.857,-1.029 4.778,-5.964 3.94,-12.606 z"
         id="path6"
         inkscape:connector-curvature="0" /></g><path
       d="M 71.393,26.598 C 70.582,20.171 65.545,13.968 59,13.032 c -3.385,-0.484 -6.222,0.576 -7.762,1.311 v 53.41 c -2.469,-1.286 -5.5,-2.054 -8.789,-2.054 -8.261,0 -14.959,4.788 -14.959,10.695 0,5.906 6.697,10.695 14.959,10.695 8.262,0 14.959,-4.788 14.959,-10.695 0,-0.242 0,-31.343 0,-46.645 0.859,-0.883 1.611,-1.133 2.167,-1.182 2.753,-0.242 5.987,3.976 7.879,10.637 0.856,-1.029 4.777,-5.964 3.939,-12.606 z"
       style="fill:none;stroke:#000000;stroke-miterlimit:10"
       id="path10"
       inkscape:connector-curvature="0" /></g></svg>